REM DIRINDEX 1\2\4\18,1\2\4\19,1\2\5\20,1\2\5\21,1\2\6\22,1\2\7\23,1\2\8\24,1\2\8\25,1\2\9\26,1\2\10\27,1\3\11\28,1\3\11\29,1\3\11\30,1\3\11\31,1\3\12\32,1\3\12\33,1\3\12\34,1\3\12\35,1\3\13\36,1\3\13\37,1\3\14\38,1\3\14\39,1\3\15\40,1\3\15\41,1\3\15\42,1\3\16\43,1\3\16\44,1\3\17\45,1\3\17\46
REM DIRNAME folder01,folder02,folder03,folder04,folder05,folder06,folder07,folder08,folder09,folder10,folder11,folder12,folder13,folder14,folder15,folder16,folder17,folder18,folder19,folder20,folder21,folder22,folder23,folder24,folder25,folder26,folder27,folder28,folder29,folder30,folder31,folder32,folder33,folder34,folder35,folder36,folder37,folder38,folder39,folder40,folder41,folder42,folder43,folder44,folder45,folder46
TITLE ""
FILE "03.mp3" MP3
  TRACK 01 AUDIO
    TITLE "0:"
    INDEX 01 00:00:00
  TRACK 02 AUDIO
    TITLE "28:cjc023_3596"
    INDEX 01 00:00:13
  TRACK 03 AUDIO
    TITLE "0:"
    INDEX 01 00:01:38
  TRACK 04 AUDIO
    TITLE "29:cjc023_3597"
    INDEX 01 00:02:12
  TRACK 05 AUDIO
    TITLE "0:"
    INDEX 01 00:03:66
  TRACK 06 AUDIO
    TITLE "30:cjc023_3598"
    INDEX 01 00:04:11
  TRACK 07 AUDIO
    TITLE "0:"
    INDEX 01 00:06:00
  TRACK 08 AUDIO
    TITLE "31:cjc023_3599"
    INDEX 01 00:06:18
  TRACK 09 AUDIO
    TITLE "0:"
    INDEX 01 00:08:07
  TRACK 10 AUDIO
    TITLE "28:cjc023_3600"
    INDEX 01 00:09:02
  TRACK 11 AUDIO
    TITLE "0:"
    INDEX 01 00:10:35
  TRACK 12 AUDIO
    TITLE "29:cjc023_3601"
    INDEX 01 00:11:07
  TRACK 13 AUDIO
    TITLE "0:"
    INDEX 01 00:12:50
  TRACK 14 AUDIO
    TITLE "30:cjc023_3602"
    INDEX 01 00:12:73
  TRACK 15 AUDIO
    TITLE "0:"
    INDEX 01 00:14:60
  TRACK 16 AUDIO
    TITLE "31:cjc023_3603"
    INDEX 01 00:15:07
  TRACK 17 AUDIO
    TITLE "0:"
    INDEX 01 00:16:69
  TRACK 18 AUDIO
    TITLE "28:cjc023_3604"
    INDEX 01 00:17:69
  TRACK 19 AUDIO
    TITLE "0:"
    INDEX 01 00:19:26
  TRACK 20 AUDIO
    TITLE "29:cjc023_3605"
    INDEX 01 00:19:73
  TRACK 21 AUDIO
    TITLE "0:"
    INDEX 01 00:23:46
  TRACK 22 AUDIO
    TITLE "30:cjc023_3606"
    INDEX 01 00:23:73
  TRACK 23 AUDIO
    TITLE "0:"
    INDEX 01 00:27:08
  TRACK 24 AUDIO
    TITLE "31:cjc023_3607"
    INDEX 01 00:27:32
  TRACK 25 AUDIO
    TITLE "0:"
    INDEX 01 00:30:42
  TRACK 26 AUDIO
    TITLE "28:cjc023_3608"
    INDEX 01 00:31:39
  TRACK 27 AUDIO
    TITLE "0:"
    INDEX 01 00:32:50
  TRACK 28 AUDIO
    TITLE "29:cjc023_3609"
    INDEX 01 00:33:22
  TRACK 29 AUDIO
    TITLE "0:"
    INDEX 01 00:37:16
  TRACK 30 AUDIO
    TITLE "30:cjc023_3610"
    INDEX 01 00:37:38
  TRACK 31 AUDIO
    TITLE "0:"
    INDEX 01 00:40:48
  TRACK 32 AUDIO
    TITLE "31:cjc023_3611"
    INDEX 01 00:40:73
  TRACK 33 AUDIO
    TITLE "0:"
    INDEX 01 00:44:09
  TRACK 34 AUDIO
    TITLE "28:cjc023_3612"
    INDEX 01 00:45:08
  TRACK 35 AUDIO
    TITLE "0:"
    INDEX 01 00:46:06
  TRACK 36 AUDIO
    TITLE "29:cjc023_3613"
    INDEX 01 00:46:62
  TRACK 37 AUDIO
    TITLE "0:"
    INDEX 01 00:48:51
  TRACK 38 AUDIO
    TITLE "30:cjc023_3614"
    INDEX 01 00:49:00
  TRACK 39 AUDIO
    TITLE "0:"
    INDEX 01 00:50:52
  TRACK 40 AUDIO
    TITLE "31:cjc023_3615"
    INDEX 01 00:50:72
  TRACK 41 AUDIO
    TITLE "0:"
    INDEX 01 00:52:49
  TRACK 42 AUDIO
    TITLE "28:cjc023_3616"
    INDEX 01 00:53:47
  TRACK 43 AUDIO
    TITLE "0:"
    INDEX 01 00:54:68
  TRACK 44 AUDIO
    TITLE "29:cjc023_3617"
    INDEX 01 00:55:44
  TRACK 45 AUDIO
    TITLE "0:"
    INDEX 01 00:58:11
  TRACK 46 AUDIO
    TITLE "30:cjc023_3618"
    INDEX 01 00:58:36
  TRACK 47 AUDIO
    TITLE "0:"
    INDEX 01 01:00:64
  TRACK 48 AUDIO
    TITLE "31:cjc023_3619"
    INDEX 01 01:01:11
  TRACK 49 AUDIO
    TITLE "0:"
    INDEX 01 01:03:39
  TRACK 50 AUDIO
    TITLE "28:cjc023_3620"
    INDEX 01 01:04:35
  TRACK 51 AUDIO
    TITLE "0:"
    INDEX 01 01:05:54
  TRACK 52 AUDIO
    TITLE "29:cjc023_3621"
    INDEX 01 01:06:26
  TRACK 53 AUDIO
    TITLE "0:"
    INDEX 01 01:07:68
  TRACK 54 AUDIO
    TITLE "30:cjc023_3622"
    INDEX 01 01:08:15
  TRACK 55 AUDIO
    TITLE "0:"
    INDEX 01 01:10:08
  TRACK 56 AUDIO
    TITLE "31:cjc023_3623"
    INDEX 01 01:10:30
  TRACK 57 AUDIO
    TITLE "0:"
    INDEX 01 01:12:24
  TRACK 58 AUDIO
    TITLE "28:cjc023_3624"
    INDEX 01 01:13:22
  TRACK 59 AUDIO
    TITLE "0:"
    INDEX 01 01:14:35
  TRACK 60 AUDIO
    TITLE "29:cjc023_3625"
    INDEX 01 01:15:05
  TRACK 61 AUDIO
    TITLE "0:"
    INDEX 01 01:17:65
  TRACK 62 AUDIO
    TITLE "30:cjc023_3626"
    INDEX 01 01:18:13
  TRACK 63 AUDIO
    TITLE "0:"
    INDEX 01 01:20:67
  TRACK 64 AUDIO
    TITLE "31:cjc023_3627"
    INDEX 01 01:21:14
  TRACK 65 AUDIO
    TITLE "0:"
    INDEX 01 01:23:65
  TRACK 66 AUDIO
    TITLE "28:cjc023_3628"
    INDEX 01 01:24:63
  TRACK 67 AUDIO
    TITLE "0:"
    INDEX 01 01:25:70
  TRACK 68 AUDIO
    TITLE "29:cjc023_3629"
    INDEX 01 01:26:40
  TRACK 69 AUDIO
    TITLE "0:"
    INDEX 01 01:29:09
  TRACK 70 AUDIO
    TITLE "30:cjc023_3630"
    INDEX 01 01:29:33
  TRACK 71 AUDIO
    TITLE "0:"
    INDEX 01 01:31:55
  TRACK 72 AUDIO
    TITLE "31:cjc023_3631"
    INDEX 01 01:32:00
  TRACK 73 AUDIO
    TITLE "0:"
    INDEX 01 01:34:22
  TRACK 74 AUDIO
    TITLE "28:cjc023_3632"
    INDEX 01 01:35:18
  TRACK 75 AUDIO
    TITLE "0:"
    INDEX 01 01:36:27
  TRACK 76 AUDIO
    TITLE "29:cjc023_3633"
    INDEX 01 01:37:01
  TRACK 77 AUDIO
    TITLE "0:"
    INDEX 01 01:39:35
  TRACK 78 AUDIO
    TITLE "30:cjc023_3634"
    INDEX 01 01:39:61
  TRACK 79 AUDIO
    TITLE "0:"
    INDEX 01 01:41:36
  TRACK 80 AUDIO
    TITLE "31:cjc023_3635"
    INDEX 01 01:41:61
  TRACK 81 AUDIO
    TITLE "0:"
    INDEX 01 01:43:37
  TRACK 82 AUDIO
    TITLE "28:cjc023_3636"
    INDEX 01 01:44:36
  TRACK 83 AUDIO
    TITLE "0:"
    INDEX 01 01:45:67
  TRACK 84 AUDIO
    TITLE "29:cjc023_3637"
    INDEX 01 01:46:43
  TRACK 85 AUDIO
    TITLE "0:"
    INDEX 01 01:48:20
  TRACK 86 AUDIO
    TITLE "30:cjc023_3638"
    INDEX 01 01:48:38
  TRACK 87 AUDIO
    TITLE "0:"
    INDEX 01 01:50:25
  TRACK 88 AUDIO
    TITLE "31:cjc023_3639"
    INDEX 01 01:50:47
  TRACK 89 AUDIO
    TITLE "0:"
    INDEX 01 01:52:32
  TRACK 90 AUDIO
    TITLE "28:cjc023_3640"
    INDEX 01 01:53:29
  TRACK 91 AUDIO
    TITLE "0:"
    INDEX 01 01:54:52
  TRACK 92 AUDIO
    TITLE "29:cjc023_3641"
    INDEX 01 01:55:22
  TRACK 93 AUDIO
    TITLE "0:"
    INDEX 01 01:58:05
  TRACK 94 AUDIO
    TITLE "30:cjc023_3642"
    INDEX 01 01:58:32
  TRACK 95 AUDIO
    TITLE "0:"
    INDEX 01 02:00:49
  TRACK 96 AUDIO
    TITLE "31:cjc023_3643"
    INDEX 01 02:00:74
  TRACK 97 AUDIO
    TITLE "0:"
    INDEX 01 02:03:16
  TRACK 98 AUDIO
    TITLE "28:cjc023_3644"
    INDEX 01 02:04:15
  TRACK 99 AUDIO
    TITLE "0:"
    INDEX 01 02:05:25
  TRACK 100 AUDIO
    TITLE "29:cjc023_3645"
    INDEX 01 02:05:74
  TRACK 101 AUDIO
    TITLE "0:"
    INDEX 01 02:08:13
  TRACK 102 AUDIO
    TITLE "30:cjc023_3646"
    INDEX 01 02:08:37
  TRACK 103 AUDIO
    TITLE "0:"
    INDEX 01 02:10:47
  TRACK 104 AUDIO
    TITLE "31:cjc023_3647"
    INDEX 01 02:10:67
  TRACK 105 AUDIO
    TITLE "0:"
    INDEX 01 02:13:01
  TRACK 106 AUDIO
    TITLE "28:cjc023_3648"
    INDEX 01 02:13:73
  TRACK 107 AUDIO
    TITLE "0:"
    INDEX 01 02:15:29
  TRACK 108 AUDIO
    TITLE "29:cjc023_3649"
    INDEX 01 02:16:03
  TRACK 109 AUDIO
    TITLE "0:"
    INDEX 01 02:17:44
  TRACK 110 AUDIO
    TITLE "30:cjc023_3650"
    INDEX 01 02:17:71
  TRACK 111 AUDIO
    TITLE "0:"
    INDEX 01 02:20:11
  TRACK 112 AUDIO
    TITLE "31:cjc023_3651"
    INDEX 01 02:20:34
  TRACK 113 AUDIO
    TITLE "0:"
    INDEX 01 02:22:47
  TRACK 114 AUDIO
    TITLE "28:cjc023_3652"
    INDEX 01 02:23:42
  TRACK 115 AUDIO
    TITLE "0:"
    INDEX 01 02:24:55
  TRACK 116 AUDIO
    TITLE "29:cjc023_3653"
    INDEX 01 02:25:25
  TRACK 117 AUDIO
    TITLE "0:"
    INDEX 01 02:28:20
  TRACK 118 AUDIO
    TITLE "30:cjc023_3654"
    INDEX 01 02:28:47
  TRACK 119 AUDIO
    TITLE "0:"
    INDEX 01 02:31:38
  TRACK 120 AUDIO
    TITLE "31:cjc023_3655"
    INDEX 01 02:31:61
  TRACK 121 AUDIO
    TITLE "0:"
    INDEX 01 02:34:50
  TRACK 122 AUDIO
    TITLE "28:cjc023_3656"
    INDEX 01 02:35:47
  TRACK 123 AUDIO
    TITLE "0:"
    INDEX 01 02:36:45
  TRACK 124 AUDIO
    TITLE "29:cjc023_3657"
    INDEX 01 02:37:19
  TRACK 125 AUDIO
    TITLE "0:"
    INDEX 01 02:38:73
  TRACK 126 AUDIO
    TITLE "30:cjc023_3658"
    INDEX 01 02:39:20
  TRACK 127 AUDIO
    TITLE "0:"
    INDEX 01 02:41:09
  TRACK 128 AUDIO
    TITLE "31:cjc023_3659"
    INDEX 01 02:41:30
  TRACK 129 AUDIO
    TITLE "0:"
    INDEX 01 02:43:19
  TRACK 130 AUDIO
    TITLE "28:cjc023_3660"
    INDEX 01 02:44:15
  TRACK 131 AUDIO
    TITLE "0:"
    INDEX 01 02:45:18
  TRACK 132 AUDIO
    TITLE "29:cjc023_3661"
    INDEX 01 02:45:63
  TRACK 133 AUDIO
    TITLE "0:"
    INDEX 01 02:48:30
  TRACK 134 AUDIO
    TITLE "30:cjc023_3662"
    INDEX 01 02:48:54
  TRACK 135 AUDIO
    TITLE "0:"
    INDEX 01 02:51:03
  TRACK 136 AUDIO
    TITLE "31:cjc023_3663"
    INDEX 01 02:51:29
  TRACK 137 AUDIO
    TITLE "0:"
    INDEX 01 02:53:53
  TRACK 138 AUDIO
    TITLE "28:cjc023_3664"
    INDEX 01 02:54:53
  TRACK 139 AUDIO
    TITLE "0:"
    INDEX 01 02:55:54
  TRACK 140 AUDIO
    TITLE "29:cjc023_3665"
    INDEX 01 02:56:28
  TRACK 141 AUDIO
    TITLE "0:"
    INDEX 01 02:58:70
  TRACK 142 AUDIO
    TITLE "30:cjc023_3666"
    INDEX 01 02:59:18
  TRACK 143 AUDIO
    TITLE "0:"
    INDEX 01 03:00:63
  TRACK 144 AUDIO
    TITLE "31:cjc023_3667"
    INDEX 01 03:01:13
  TRACK 145 AUDIO
    TITLE "0:"
    INDEX 01 03:02:58
  TRACK 146 AUDIO
    TITLE "28:cjc023_3668"
    INDEX 01 03:03:57
  TRACK 147 AUDIO
    TITLE "0:"
    INDEX 01 03:04:61
  TRACK 148 AUDIO
    TITLE "29:cjc023_3669"
    INDEX 01 03:05:33
  TRACK 149 AUDIO
    TITLE "0:"
    INDEX 01 03:07:28
  TRACK 150 AUDIO
    TITLE "30:cjc023_3670"
    INDEX 01 03:07:51
  TRACK 151 AUDIO
    TITLE "0:"
    INDEX 01 03:09:15
  TRACK 152 AUDIO
    TITLE "31:cjc023_3671"
    INDEX 01 03:09:44
  TRACK 153 AUDIO
    TITLE "0:"
    INDEX 01 03:11:08
  TRACK 154 AUDIO
    TITLE "28:cjc023_3672"
    INDEX 01 03:12:09
  TRACK 155 AUDIO
    TITLE "0:"
    INDEX 01 03:13:09
  TRACK 156 AUDIO
    TITLE "29:cjc023_3673"
    INDEX 01 03:13:58
  TRACK 157 AUDIO
    TITLE "0:"
    INDEX 01 03:15:12
  TRACK 158 AUDIO
    TITLE "30:cjc023_3674"
    INDEX 01 03:15:37
  TRACK 159 AUDIO
    TITLE "0:"
    INDEX 01 03:17:01
  TRACK 160 AUDIO
    TITLE "31:cjc023_3675"
    INDEX 01 03:17:24
  TRACK 161 AUDIO
    TITLE "0:"
    INDEX 01 03:18:63
  TRACK 162 AUDIO
    TITLE "28:cjc023_3676"
    INDEX 01 03:19:60
  TRACK 163 AUDIO
    TITLE "0:"
    INDEX 01 03:21:10
  TRACK 164 AUDIO
    TITLE "29:cjc023_3677"
    INDEX 01 03:21:55
  TRACK 165 AUDIO
    TITLE "0:"
    INDEX 01 03:23:35
  TRACK 166 AUDIO
    TITLE "30:cjc023_3678"
    INDEX 01 03:23:56
  TRACK 167 AUDIO
    TITLE "0:"
    INDEX 01 03:25:33
  TRACK 168 AUDIO
    TITLE "31:cjc023_3679"
    INDEX 01 03:25:57
  TRACK 169 AUDIO
    TITLE "0:"
    INDEX 01 03:27:36
  TRACK 170 AUDIO
    TITLE "28:cjc023_3680"
    INDEX 01 03:28:36
  TRACK 171 AUDIO
    TITLE "0:"
    INDEX 01 03:29:39
  TRACK 172 AUDIO
    TITLE "29:cjc023_3681"
    INDEX 01 03:30:19
  TRACK 173 AUDIO
    TITLE "0:"
    INDEX 01 03:31:63
  TRACK 174 AUDIO
    TITLE "30:cjc023_3682"
    INDEX 01 03:32:10
  TRACK 175 AUDIO
    TITLE "0:"
    INDEX 01 03:33:58
  TRACK 176 AUDIO
    TITLE "31:cjc023_3683"
    INDEX 01 03:34:03
  TRACK 177 AUDIO
    TITLE "0:"
    INDEX 01 03:35:51
  TRACK 178 AUDIO
    TITLE "28:cjc023_3684"
    INDEX 01 03:36:47
  TRACK 179 AUDIO
    TITLE "0:"
    INDEX 01 03:37:60
  TRACK 180 AUDIO
    TITLE "29:cjc023_3685"
    INDEX 01 03:38:40
  TRACK 181 AUDIO
    TITLE "0:"
    INDEX 01 03:41:15
  TRACK 182 AUDIO
    TITLE "30:cjc023_3686"
    INDEX 01 03:41:38
  TRACK 183 AUDIO
    TITLE "0:"
    INDEX 01 03:43:41
  TRACK 184 AUDIO
    TITLE "31:cjc023_3687"
    INDEX 01 03:43:65
  TRACK 185 AUDIO
    TITLE "0:"
    INDEX 01 03:45:69
  TRACK 186 AUDIO
    TITLE "28:cjc023_3688"
    INDEX 01 03:46:69
  TRACK 187 AUDIO
    TITLE "0:"
    INDEX 01 03:48:09
  TRACK 188 AUDIO
    TITLE "29:cjc023_3689"
    INDEX 01 03:48:58
  TRACK 189 AUDIO
    TITLE "0:"
    INDEX 01 03:51:02
  TRACK 190 AUDIO
    TITLE "30:cjc023_3690"
    INDEX 01 03:51:25
  TRACK 191 AUDIO
    TITLE "0:"
    INDEX 01 03:53:47
  TRACK 192 AUDIO
    TITLE "31:cjc023_3691"
    INDEX 01 03:53:73
  TRACK 193 AUDIO
    TITLE "0:"
    INDEX 01 03:56:20
  TRACK 194 AUDIO
    TITLE "28:cjc023_3692"
    INDEX 01 03:57:18
  TRACK 195 AUDIO
    TITLE "0:"
    INDEX 01 03:58:29
  TRACK 196 AUDIO
    TITLE "29:cjc023_3693"
    INDEX 01 03:59:03
  TRACK 197 AUDIO
    TITLE "0:"
    INDEX 01 04:01:53
  TRACK 198 AUDIO
    TITLE "30:cjc023_3694"
    INDEX 01 04:01:74
  TRACK 199 AUDIO
    TITLE "0:"
    INDEX 01 04:04:37
  TRACK 200 AUDIO
    TITLE "31:cjc023_3695"
    INDEX 01 04:04:57
  TRACK 201 AUDIO
    TITLE "0:"
    INDEX 01 04:07:20
  TRACK 202 AUDIO
    TITLE "28:cjc023_3696"
    INDEX 01 04:08:16
  TRACK 203 AUDIO
    TITLE "0:"
    INDEX 01 04:09:45
  TRACK 204 AUDIO
    TITLE "29:cjc023_3697"
    INDEX 01 04:10:15
  TRACK 205 AUDIO
    TITLE "0:"
    INDEX 01 04:13:21
  TRACK 206 AUDIO
    TITLE "30:cjc023_3698"
    INDEX 01 04:13:42
  TRACK 207 AUDIO
    TITLE "0:"
    INDEX 01 04:16:56
  TRACK 208 AUDIO
    TITLE "31:cjc023_3699"
    INDEX 01 04:17:03
  TRACK 209 AUDIO
    TITLE "0:"
    INDEX 01 04:20:15
  TRACK 210 AUDIO
    TITLE "28:cjc023_3700"
    INDEX 01 04:21:12
  TRACK 211 AUDIO
    TITLE "0:"
    INDEX 01 04:22:29
  TRACK 212 AUDIO
    TITLE "29:cjc023_3701"
    INDEX 01 04:23:03
  TRACK 213 AUDIO
    TITLE "0:"
    INDEX 01 04:24:68
  TRACK 214 AUDIO
    TITLE "30:cjc023_3702"
    INDEX 01 04:25:16
  TRACK 215 AUDIO
    TITLE "0:"
    INDEX 01 04:27:25
  TRACK 216 AUDIO
    TITLE "31:cjc023_3703"
    INDEX 01 04:27:50
  TRACK 217 AUDIO
    TITLE "0:"
    INDEX 01 04:29:61
  TRACK 218 AUDIO
    TITLE "28:cjc023_3704"
    INDEX 01 04:30:60
  TRACK 219 AUDIO
    TITLE "0:"
    INDEX 01 04:31:68
  TRACK 220 AUDIO
    TITLE "29:cjc023_3705"
    INDEX 01 04:32:40
  TRACK 221 AUDIO
    TITLE "0:"
    INDEX 01 04:34:64
  TRACK 222 AUDIO
    TITLE "30:cjc023_3706"
    INDEX 01 04:35:13
  TRACK 223 AUDIO
    TITLE "0:"
    INDEX 01 04:37:23
  TRACK 224 AUDIO
    TITLE "31:cjc023_3707"
    INDEX 01 04:37:45
  TRACK 225 AUDIO
    TITLE "0:"
    INDEX 01 04:39:55
  TRACK 226 AUDIO
    TITLE "28:cjc023_3708"
    INDEX 01 04:40:53
  TRACK 227 AUDIO
    TITLE "0:"
    INDEX 01 04:41:70
  TRACK 228 AUDIO
    TITLE "29:cjc023_3709"
    INDEX 01 04:42:46
  TRACK 229 AUDIO
    TITLE "0:"
    INDEX 01 04:44:13
  TRACK 230 AUDIO
    TITLE "30:cjc023_3710"
    INDEX 01 04:44:33
  TRACK 231 AUDIO
    TITLE "0:"
    INDEX 01 04:46:12
  TRACK 232 AUDIO
    TITLE "31:cjc023_3711"
    INDEX 01 04:46:36
  TRACK 233 AUDIO
    TITLE "0:"
    INDEX 01 04:48:15
  TRACK 234 AUDIO
    TITLE "28:cjc023_3712"
    INDEX 01 04:49:13
  TRACK 235 AUDIO
    TITLE "0:"
    INDEX 01 04:50:22
  TRACK 236 AUDIO
    TITLE "29:cjc023_3713"
    INDEX 01 04:50:73
  TRACK 237 AUDIO
    TITLE "0:"
    INDEX 01 04:52:64
  TRACK 238 AUDIO
    TITLE "30:cjc023_3714"
    INDEX 01 04:53:12
  TRACK 239 AUDIO
    TITLE "0:"
    INDEX 01 04:55:17
  TRACK 240 AUDIO
    TITLE "31:cjc023_3715"
    INDEX 01 04:55:41
  TRACK 241 AUDIO
    TITLE "0:"
    INDEX 01 04:57:45
  TRACK 242 AUDIO
    TITLE "28:cjc023_3716"
    INDEX 01 04:58:45
  TRACK 243 AUDIO
    TITLE "0:"
    INDEX 01 04:59:60
  TRACK 244 AUDIO
    TITLE "29:cjc023_3717"
    INDEX 01 05:00:34
  TRACK 245 AUDIO
    TITLE "0:"
    INDEX 01 05:02:02
  TRACK 246 AUDIO
    TITLE "30:cjc023_3718"
    INDEX 01 05:02:23
  TRACK 247 AUDIO
    TITLE "0:"
    INDEX 01 05:04:14
  TRACK 248 AUDIO
    TITLE "31:cjc023_3719"
    INDEX 01 05:04:32
  TRACK 249 AUDIO
    TITLE "0:"
    INDEX 01 05:06:21
  TRACK 250 AUDIO
    TITLE "28:cjc023_3720"
    INDEX 01 05:07:18
  TRACK 251 AUDIO
    TITLE "0:"
    INDEX 01 05:08:24
  TRACK 252 AUDIO
    TITLE "29:cjc023_3721"
    INDEX 01 05:08:71
  TRACK 253 AUDIO
    TITLE "0:"
    INDEX 01 05:10:44
  TRACK 254 AUDIO
    TITLE "30:cjc023_3722"
    INDEX 01 05:10:68
  TRACK 255 AUDIO
    TITLE "0:"
    INDEX 01 05:12:49
  TRACK 256 AUDIO
    TITLE "31:cjc023_3723"
    INDEX 01 05:12:71
  TRACK 257 AUDIO
    TITLE "0:"
    INDEX 01 05:14:50
  TRACK 258 AUDIO
    TITLE "28:cjc023_3724"
    INDEX 01 05:15:47
  TRACK 259 AUDIO
    TITLE "0:"
    INDEX 01 05:16:45
  TRACK 260 AUDIO
    TITLE "29:cjc023_3725"
    INDEX 01 05:17:15
  TRACK 261 AUDIO
    TITLE "0:"
    INDEX 01 05:20:11
  TRACK 262 AUDIO
    TITLE "30:cjc023_3726"
    INDEX 01 05:20:31
  TRACK 263 AUDIO
    TITLE "0:"
    INDEX 01 05:22:28
  TRACK 264 AUDIO
    TITLE "31:cjc023_3727"
    INDEX 01 05:22:55
  TRACK 265 AUDIO
    TITLE "0:"
    INDEX 01 05:24:54
  TRACK 266 AUDIO
    TITLE "28:cjc023_3728"
    INDEX 01 05:25:57
  TRACK 267 AUDIO
    TITLE "0:"
    INDEX 01 05:26:51
  TRACK 268 AUDIO
    TITLE "29:cjc023_3729"
    INDEX 01 05:27:21
  TRACK 269 AUDIO
    TITLE "0:"
    INDEX 01 05:28:72
  TRACK 270 AUDIO
    TITLE "30:cjc023_3730"
    INDEX 01 05:29:20
  TRACK 271 AUDIO
    TITLE "0:"
    INDEX 01 05:30:68
  TRACK 272 AUDIO
    TITLE "31:cjc023_3731"
    INDEX 01 05:31:21
  TRACK 273 AUDIO
    TITLE "0:"
    INDEX 01 05:32:67
  TRACK 274 AUDIO
    TITLE "28:cjc023_3732"
    INDEX 01 05:33:71
  TRACK 275 AUDIO
    TITLE "0:"
    INDEX 01 05:35:25
  TRACK 276 AUDIO
    TITLE "29:cjc023_3733"
    INDEX 01 05:35:70
  TRACK 277 AUDIO
    TITLE "0:"
    INDEX 01 05:37:69
  TRACK 278 AUDIO
    TITLE "30:cjc023_3734"
    INDEX 01 05:38:15
  TRACK 279 AUDIO
    TITLE "0:"
    INDEX 01 05:40:12
  TRACK 280 AUDIO
    TITLE "31:cjc023_3735"
    INDEX 01 05:40:36
  TRACK 281 AUDIO
    TITLE "0:"
    INDEX 01 05:42:34
  TRACK 282 AUDIO
    TITLE "28:cjc023_3736"
    INDEX 01 05:43:30
  TRACK 283 AUDIO
    TITLE "0:"
    INDEX 01 05:44:35
  TRACK 284 AUDIO
    TITLE "29:cjc023_3737"
    INDEX 01 05:45:11
  TRACK 285 AUDIO
    TITLE "0:"
    INDEX 01 05:47:65
  TRACK 286 AUDIO
    TITLE "30:cjc023_3738"
    INDEX 01 05:48:15
  TRACK 287 AUDIO
    TITLE "0:"
    INDEX 01 05:50:57
  TRACK 288 AUDIO
    TITLE "31:cjc023_3739"
    INDEX 01 05:51:02
  TRACK 289 AUDIO
    TITLE "0:"
    INDEX 01 05:53:42
  TRACK 290 AUDIO
    TITLE "28:cjc023_3740"
    INDEX 01 05:54:40
  TRACK 291 AUDIO
    TITLE "0:"
    INDEX 01 05:55:55
  TRACK 292 AUDIO
    TITLE "29:cjc023_3741"
    INDEX 01 05:56:25
  TRACK 293 AUDIO
    TITLE "0:"
    INDEX 01 05:59:52
  TRACK 294 AUDIO
    TITLE "30:cjc023_3742"
    INDEX 01 05:59:72
  TRACK 295 AUDIO
    TITLE "0:"
    INDEX 01 06:03:07
  TRACK 296 AUDIO
    TITLE "31:cjc023_3743"
    INDEX 01 06:03:29
  TRACK 297 AUDIO
    TITLE "0:"
    INDEX 01 06:06:35
  TRACK 298 AUDIO
    TITLE "28:cjc023_3744"
    INDEX 01 06:07:32
  TRACK 299 AUDIO
    TITLE "0:"
    INDEX 01 06:08:46
  TRACK 300 AUDIO
    TITLE "29:cjc023_3745"
    INDEX 01 06:09:18
  TRACK 301 AUDIO
    TITLE "0:"
    INDEX 01 06:11:24
  TRACK 302 AUDIO
    TITLE "30:cjc023_3746"
    INDEX 01 06:11:46
  TRACK 303 AUDIO
    TITLE "0:"
    INDEX 01 06:14:11
  TRACK 304 AUDIO
    TITLE "31:cjc023_3747"
    INDEX 01 06:14:32
  TRACK 305 AUDIO
    TITLE "0:"
    INDEX 01 06:16:74
  TRACK 306 AUDIO
    TITLE "28:cjc023_3748"
    INDEX 01 06:17:70
  TRACK 307 AUDIO
    TITLE "0:"
    INDEX 01 06:19:20
  TRACK 308 AUDIO
    TITLE "29:cjc023_3749"
    INDEX 01 06:19:67
  TRACK 309 AUDIO
    TITLE "0:"
    INDEX 01 06:21:46
  TRACK 310 AUDIO
    TITLE "30:cjc023_3750"
    INDEX 01 06:21:68
  TRACK 311 AUDIO
    TITLE "0:"
    INDEX 01 06:24:00
  TRACK 312 AUDIO
    TITLE "31:cjc023_3751"
    INDEX 01 06:24:21
  TRACK 313 AUDIO
    TITLE "0:"
    INDEX 01 06:26:24
  TRACK 314 AUDIO
    TITLE "28:cjc023_3752"
    INDEX 01 06:27:23
  TRACK 315 AUDIO
    TITLE "0:"
    INDEX 01 06:28:58
  TRACK 316 AUDIO
    TITLE "29:cjc023_3753"
    INDEX 01 06:29:30
  TRACK 317 AUDIO
    TITLE "0:"
    INDEX 01 06:31:17
  TRACK 318 AUDIO
    TITLE "30:cjc023_3754"
    INDEX 01 06:31:37
  TRACK 319 AUDIO
    TITLE "0:"
    INDEX 01 06:33:55
  TRACK 320 AUDIO
    TITLE "31:cjc023_3755"
    INDEX 01 06:34:00
  TRACK 321 AUDIO
    TITLE "0:"
    INDEX 01 06:36:18
  TRACK 322 AUDIO
    TITLE "28:cjc023_3756"
    INDEX 01 06:37:14
  TRACK 323 AUDIO
    TITLE "0:"
    INDEX 01 06:38:39
  TRACK 324 AUDIO
    TITLE "29:cjc023_3757"
    INDEX 01 06:39:15
  TRACK 325 AUDIO
    TITLE "0:"
    INDEX 01 06:41:23
  TRACK 326 AUDIO
    TITLE "30:cjc023_3758"
    INDEX 01 06:41:47
  TRACK 327 AUDIO
    TITLE "0:"
    INDEX 01 06:43:42
  TRACK 328 AUDIO
    TITLE "31:cjc023_3759"
    INDEX 01 06:43:67
  TRACK 329 AUDIO
    TITLE "0:"
    INDEX 01 06:45:64
  TRACK 330 AUDIO
    TITLE "28:cjc023_3760"
    INDEX 01 06:46:60
  TRACK 331 AUDIO
    TITLE "0:"
    INDEX 01 06:47:67
  TRACK 332 AUDIO
    TITLE "29:cjc023_3761"
    INDEX 01 06:48:41
  TRACK 333 AUDIO
    TITLE "0:"
    INDEX 01 06:52:37
  TRACK 334 AUDIO
    TITLE "30:cjc023_3762"
    INDEX 01 06:52:62
  TRACK 335 AUDIO
    TITLE "0:"
    INDEX 01 06:55:65
  TRACK 336 AUDIO
    TITLE "31:cjc023_3763"
    INDEX 01 06:56:15
  TRACK 337 AUDIO
    TITLE "0:"
    INDEX 01 06:59:17
  TRACK 338 AUDIO
    TITLE "28:cjc023_3764"
    INDEX 01 07:00:15
  TRACK 339 AUDIO
    TITLE "0:"
    INDEX 01 07:01:30
  TRACK 340 AUDIO
    TITLE "29:cjc023_3765"
    INDEX 01 07:02:04
  TRACK 341 AUDIO
    TITLE "0:"
    INDEX 01 07:04:30
  TRACK 342 AUDIO
    TITLE "30:cjc023_3766"
    INDEX 01 07:04:50
  TRACK 343 AUDIO
    TITLE "0:"
    INDEX 01 07:06:72
  TRACK 344 AUDIO
    TITLE "31:cjc023_3767"
    INDEX 01 07:07:17
  TRACK 345 AUDIO
    TITLE "0:"
    INDEX 01 07:09:39
  TRACK 346 AUDIO
    TITLE "28:cjc023_3768"
    INDEX 01 07:10:35
  TRACK 347 AUDIO
    TITLE "0:"
    INDEX 01 07:11:46
  TRACK 348 AUDIO
    TITLE "29:cjc023_3769"
    INDEX 01 07:12:16
  TRACK 349 AUDIO
    TITLE "0:"
    INDEX 01 07:14:37
  TRACK 350 AUDIO
    TITLE "30:cjc023_3770"
    INDEX 01 07:14:58
  TRACK 351 AUDIO
    TITLE "0:"
    INDEX 01 07:17:41
  TRACK 352 AUDIO
    TITLE "31:cjc023_3771"
    INDEX 01 07:17:64
  TRACK 353 AUDIO
    TITLE "0:"
    INDEX 01 07:20:49
  TRACK 354 AUDIO
    TITLE "28:cjc023_3772"
    INDEX 01 07:21:48
  TRACK 355 AUDIO
    TITLE "0:"
    INDEX 01 07:22:64
  TRACK 356 AUDIO
    TITLE "29:cjc023_3773"
    INDEX 01 07:23:34
  TRACK 357 AUDIO
    TITLE "0:"
    INDEX 01 07:26:61
  TRACK 358 AUDIO
    TITLE "30:cjc023_3774"
    INDEX 01 07:27:08
  TRACK 359 AUDIO
    TITLE "0:"
    INDEX 01 07:29:66
  TRACK 360 AUDIO
    TITLE "31:cjc023_3775"
    INDEX 01 07:30:12
  TRACK 361 AUDIO
    TITLE "0:"
    INDEX 01 07:32:72
  TRACK 362 AUDIO
    TITLE "28:cjc023_3776"
    INDEX 01 07:33:67
  TRACK 363 AUDIO
    TITLE "0:"
    INDEX 01 07:35:05
  TRACK 364 AUDIO
    TITLE "29:cjc023_3777"
    INDEX 01 07:35:52
  TRACK 365 AUDIO
    TITLE "0:"
    INDEX 01 07:38:68
  TRACK 366 AUDIO
    TITLE "30:cjc023_3778"
    INDEX 01 07:39:17
  TRACK 367 AUDIO
    TITLE "0:"
    INDEX 01 07:41:51
  TRACK 368 AUDIO
    TITLE "31:cjc023_3779"
    INDEX 01 07:41:73
  TRACK 369 AUDIO
    TITLE "0:"
    INDEX 01 07:44:30
  TRACK 370 AUDIO
    TITLE "28:cjc023_3780"
    INDEX 01 07:45:27
  TRACK 371 AUDIO
    TITLE "0:"
    INDEX 01 07:46:50
  TRACK 372 AUDIO
    TITLE "29:cjc023_3781"
    INDEX 01 07:47:22
  TRACK 373 AUDIO
    TITLE "0:"
    INDEX 01 07:49:47
  TRACK 374 AUDIO
    TITLE "30:cjc023_3782"
    INDEX 01 07:49:68
  TRACK 375 AUDIO
    TITLE "0:"
    INDEX 01 07:52:41
  TRACK 376 AUDIO
    TITLE "31:cjc023_3783"
    INDEX 01 07:52:63
  TRACK 377 AUDIO
    TITLE "0:"
    INDEX 01 07:55:38
  TRACK 378 AUDIO
    TITLE "28:cjc023_3784"
    INDEX 01 07:56:33
  TRACK 379 AUDIO
    TITLE "0:"
    INDEX 01 07:57:68
  TRACK 380 AUDIO
    TITLE "29:cjc023_3785"
    INDEX 01 07:58:40
  TRACK 381 AUDIO
    TITLE "0:"
    INDEX 01 08:00:23
  TRACK 382 AUDIO
    TITLE "30:cjc023_3786"
    INDEX 01 08:00:43
  TRACK 383 AUDIO
    TITLE "0:"
    INDEX 01 08:03:08
  TRACK 384 AUDIO
    TITLE "31:cjc023_3787"
    INDEX 01 08:03:25
  TRACK 385 AUDIO
    TITLE "0:"
    INDEX 01 08:05:65
  TRACK 386 AUDIO
    TITLE "28:cjc023_3788"
    INDEX 01 08:06:61
  TRACK 387 AUDIO
    TITLE "0:"
    INDEX 01 08:07:74
  TRACK 388 AUDIO
    TITLE "29:cjc023_3789"
    INDEX 01 08:08:48
  TRACK 389 AUDIO
    TITLE "0:"
    INDEX 01 08:11:13
  TRACK 390 AUDIO
    TITLE "30:cjc023_3790"
    INDEX 01 08:11:37
  TRACK 391 AUDIO
    TITLE "0:"
    INDEX 01 08:14:27
  TRACK 392 AUDIO
    TITLE "31:cjc023_3791"
    INDEX 01 08:14:53
  TRACK 393 AUDIO
    TITLE "0:"
    INDEX 01 08:17:43
  TRACK 394 AUDIO
    TITLE "28:cjc023_3792"
    INDEX 01 08:18:41
  TRACK 395 AUDIO
    TITLE "0:"
    INDEX 01 08:19:56
  TRACK 396 AUDIO
    TITLE "29:cjc023_3793"
    INDEX 01 08:20:28
  TRACK 397 AUDIO
    TITLE "0:"
    INDEX 01 08:21:72
  TRACK 398 AUDIO
    TITLE "30:cjc023_3794"
    INDEX 01 08:22:19
  TRACK 399 AUDIO
    TITLE "0:"
    INDEX 01 08:23:73
  TRACK 400 AUDIO
    TITLE "31:cjc023_3795"
    INDEX 01 08:24:20
  TRACK 401 AUDIO
    TITLE "0:"
    INDEX 01 08:25:74
  TRACK 402 AUDIO
    TITLE "28:cjc023_3796"
    INDEX 01 08:26:73
  TRACK 403 AUDIO
    TITLE "0:"
    INDEX 01 08:28:15
  TRACK 404 AUDIO
    TITLE "29:cjc023_3797"
    INDEX 01 08:28:62
  TRACK 405 AUDIO
    TITLE "0:"
    INDEX 01 08:31:71
  TRACK 406 AUDIO
    TITLE "30:cjc023_3798"
    INDEX 01 08:32:17
  TRACK 407 AUDIO
    TITLE "0:"
    INDEX 01 08:34:38
  TRACK 408 AUDIO
    TITLE "31:cjc023_3799"
    INDEX 01 08:34:61
  TRACK 409 AUDIO
    TITLE "0:"
    INDEX 01 08:37:07
  TRACK 410 AUDIO
    TITLE "28:cjc023_3800"
    INDEX 01 08:38:02
  TRACK 411 AUDIO
    TITLE "0:"
    INDEX 01 08:39:13
  TRACK 412 AUDIO
    TITLE "29:cjc023_3801"
    INDEX 01 08:39:60
  TRACK 413 AUDIO
    TITLE "0:"
    INDEX 01 08:41:55
  TRACK 414 AUDIO
    TITLE "30:cjc023_3802"
    INDEX 01 08:42:02
  TRACK 415 AUDIO
    TITLE "0:"
    INDEX 01 08:44:14
  TRACK 416 AUDIO
    TITLE "31:cjc023_3803"
    INDEX 01 08:44:36
  TRACK 417 AUDIO
    TITLE "0:"
    INDEX 01 08:46:47
  TRACK 418 AUDIO
    TITLE "28:cjc023_3804"
    INDEX 01 08:47:42
  TRACK 419 AUDIO
    TITLE "0:"
    INDEX 01 08:48:65
  TRACK 420 AUDIO
    TITLE "29:cjc023_3805"
    INDEX 01 08:49:35
  TRACK 421 AUDIO
    TITLE "0:"
    INDEX 01 08:51:60
  TRACK 422 AUDIO
    TITLE "30:cjc023_3806"
    INDEX 01 08:52:08
  TRACK 423 AUDIO
    TITLE "0:"
    INDEX 01 08:54:05
  TRACK 424 AUDIO
    TITLE "31:cjc023_3807"
    INDEX 01 08:54:29
  TRACK 425 AUDIO
    TITLE "0:"
    INDEX 01 08:56:27
  TRACK 426 AUDIO
    TITLE "28:cjc023_3808"
    INDEX 01 08:57:23
  TRACK 427 AUDIO
    TITLE "0:"
    INDEX 01 08:58:58
  TRACK 428 AUDIO
    TITLE "29:cjc023_3809"
    INDEX 01 08:59:28
  TRACK 429 AUDIO
    TITLE "0:"
    INDEX 01 09:00:70
  TRACK 430 AUDIO
    TITLE "30:cjc023_3810"
    INDEX 01 09:01:17
  TRACK 431 AUDIO
    TITLE "0:"
    INDEX 01 09:03:20
  TRACK 432 AUDIO
    TITLE "31:cjc023_3811"
    INDEX 01 09:03:39
  TRACK 433 AUDIO
    TITLE "0:"
    INDEX 01 09:05:42
  TRACK 434 AUDIO
    TITLE "28:cjc023_3812"
    INDEX 01 09:06:38
  TRACK 435 AUDIO
    TITLE "0:"
    INDEX 01 09:07:63
  TRACK 436 AUDIO
    TITLE "29:cjc023_3813"
    INDEX 01 09:08:33
  TRACK 437 AUDIO
    TITLE "0:"
    INDEX 01 09:10:35
  TRACK 438 AUDIO
    TITLE "30:cjc023_3814"
    INDEX 01 09:10:55
  TRACK 439 AUDIO
    TITLE "0:"
    INDEX 01 09:12:44
  TRACK 440 AUDIO
    TITLE "31:cjc023_3815"
    INDEX 01 09:12:64
  TRACK 441 AUDIO
    TITLE "0:"
    INDEX 01 09:14:51
  TRACK 442 AUDIO
    TITLE "28:cjc023_3816"
    INDEX 01 09:15:46
  TRACK 443 AUDIO
    TITLE "0:"
    INDEX 01 09:17:06
  TRACK 444 AUDIO
    TITLE "29:cjc023_3817"
    INDEX 01 09:17:53
  TRACK 445 AUDIO
    TITLE "0:"
    INDEX 01 09:19:42
  TRACK 446 AUDIO
    TITLE "30:cjc023_3818"
    INDEX 01 09:19:64
  TRACK 447 AUDIO
    TITLE "0:"
    INDEX 01 09:22:46
  TRACK 448 AUDIO
    TITLE "31:cjc023_3819"
    INDEX 01 09:22:66
  TRACK 449 AUDIO
    TITLE "0:"
    INDEX 01 09:25:49
  TRACK 450 AUDIO
    TITLE "28:cjc023_3820"
    INDEX 01 09:26:44
  TRACK 451 AUDIO
    TITLE "0:"
    INDEX 01 09:27:59
  TRACK 452 AUDIO
    TITLE "29:cjc023_3821"
    INDEX 01 09:28:29
  TRACK 453 AUDIO
    TITLE "0:"
    INDEX 01 09:30:17
  TRACK 454 AUDIO
    TITLE "30:cjc023_3822"
    INDEX 01 09:30:38
  TRACK 455 AUDIO
    TITLE "0:"
    INDEX 01 09:32:15
  TRACK 456 AUDIO
    TITLE "31:cjc023_3823"
    INDEX 01 09:32:35
  TRACK 457 AUDIO
    TITLE "0:"
    INDEX 01 09:34:12
  TRACK 458 AUDIO
    TITLE "28:cjc023_3824"
    INDEX 01 09:35:08
  TRACK 459 AUDIO
    TITLE "0:"
    INDEX 01 09:36:23
  TRACK 460 AUDIO
    TITLE "29:cjc023_3825"
    INDEX 01 09:37:01
  TRACK 461 AUDIO
    TITLE "0:"
    INDEX 01 09:38:47
  TRACK 462 AUDIO
    TITLE "30:cjc023_3826"
    INDEX 01 09:38:67
  TRACK 463 AUDIO
    TITLE "0:"
    INDEX 01 09:40:54
  TRACK 464 AUDIO
    TITLE "31:cjc023_3827"
    INDEX 01 09:40:74
  TRACK 465 AUDIO
    TITLE "0:"
    INDEX 01 09:42:57
  TRACK 466 AUDIO
    TITLE "28:cjc023_3828"
    INDEX 01 09:43:54
  TRACK 467 AUDIO
    TITLE "0:"
    INDEX 01 09:44:72
  TRACK 468 AUDIO
    TITLE "29:cjc023_3829"
    INDEX 01 09:45:44
  TRACK 469 AUDIO
    TITLE "0:"
    INDEX 01 09:47:31
  TRACK 470 AUDIO
    TITLE "30:cjc023_3830"
    INDEX 01 09:47:52
  TRACK 471 AUDIO
    TITLE "0:"
    INDEX 01 09:50:39
  TRACK 472 AUDIO
    TITLE "31:cjc023_3831"
    INDEX 01 09:50:60
  TRACK 473 AUDIO
    TITLE "0:"
    INDEX 01 09:53:45
  TRACK 474 AUDIO
    TITLE "28:cjc023_3832"
    INDEX 01 09:54:42
  TRACK 475 AUDIO
    TITLE "0:"
    INDEX 01 09:55:44
  TRACK 476 AUDIO
    TITLE "29:cjc023_3833"
    INDEX 01 09:56:16
  TRACK 477 AUDIO
    TITLE "0:"
    INDEX 01 09:58:09
  TRACK 478 AUDIO
    TITLE "30:cjc023_3834"
    INDEX 01 09:58:30
  TRACK 479 AUDIO
    TITLE "0:"
    INDEX 01 10:00:00
  TRACK 480 AUDIO
    TITLE "31:cjc023_3835"
    INDEX 01 10:00:24
  TRACK 481 AUDIO
    TITLE "0:"
    INDEX 01 10:01:68
  TRACK 482 AUDIO
    TITLE "28:cjc023_3836"
    INDEX 01 10:02:66
  TRACK 483 AUDIO
    TITLE "0:"
    INDEX 01 10:04:15
  TRACK 484 AUDIO
    TITLE "29:cjc023_3837"
    INDEX 01 10:04:66
  TRACK 485 AUDIO
    TITLE "0:"
    INDEX 01 10:06:46
  TRACK 486 AUDIO
    TITLE "30:cjc023_3838"
    INDEX 01 10:06:65
  TRACK 487 AUDIO
    TITLE "0:"
    INDEX 01 10:08:70
  TRACK 488 AUDIO
    TITLE "31:cjc023_3839"
    INDEX 01 10:09:15
  TRACK 489 AUDIO
    TITLE "0:"
    INDEX 01 10:11:21
  TRACK 490 AUDIO
    TITLE "28:cjc023_3840"
    INDEX 01 10:12:17
  TRACK 491 AUDIO
    TITLE "0:"
    INDEX 01 10:13:48
  TRACK 492 AUDIO
    TITLE "29:cjc023_3841"
    INDEX 01 10:14:20
  TRACK 493 AUDIO
    TITLE "0:"
    INDEX 01 10:15:49
  TRACK 494 AUDIO
    TITLE "30:cjc023_3842"
    INDEX 01 10:15:70
  TRACK 495 AUDIO
    TITLE "0:"
    INDEX 01 10:17:57
  TRACK 496 AUDIO
    TITLE "31:cjc023_3843"
    INDEX 01 10:18:06
  TRACK 497 AUDIO
    TITLE "0:"
    INDEX 01 10:19:64
  TRACK 498 AUDIO
    TITLE "28:cjc023_3844"
    INDEX 01 10:20:65
  TRACK 499 AUDIO
    TITLE "0:"
    INDEX 01 10:22:06
  TRACK 500 AUDIO
    TITLE "29:cjc023_3845"
    INDEX 01 10:22:53
  TRACK 501 AUDIO
    TITLE "0:"
    INDEX 01 10:25:74
  TRACK 502 AUDIO
    TITLE "30:cjc023_3846"
    INDEX 01 10:26:27
  TRACK 503 AUDIO
    TITLE "0:"
    INDEX 01 10:28:63
  TRACK 504 AUDIO
    TITLE "31:cjc023_3847"
    INDEX 01 10:29:13
  TRACK 505 AUDIO
    TITLE "0:"
    INDEX 01 10:31:51
  TRACK 506 AUDIO
    TITLE "28:cjc023_3848"
    INDEX 01 10:32:51
  TRACK 507 AUDIO
    TITLE "0:"
    INDEX 01 10:33:66
  TRACK 508 AUDIO
    TITLE "29:cjc023_3849"
    INDEX 01 10:34:38
  TRACK 509 AUDIO
    TITLE "0:"
    INDEX 01 10:37:05
  TRACK 510 AUDIO
    TITLE "30:cjc023_3850"
    INDEX 01 10:37:25
  TRACK 511 AUDIO
    TITLE "0:"
    INDEX 01 10:39:51
  TRACK 512 AUDIO
    TITLE "31:cjc023_3851"
    INDEX 01 10:39:73
  TRACK 513 AUDIO
    TITLE "0:"
    INDEX 01 10:42:22
  TRACK 514 AUDIO
    TITLE "28:cjc023_3852"
    INDEX 01 10:43:19
  TRACK 515 AUDIO
    TITLE "0:"
    INDEX 01 10:44:29
  TRACK 516 AUDIO
    TITLE "29:cjc023_3853"
    INDEX 01 10:45:01
  TRACK 517 AUDIO
    TITLE "0:"
    INDEX 01 10:47:35
  TRACK 518 AUDIO
    TITLE "30:cjc023_3854"
    INDEX 01 10:47:58
  TRACK 519 AUDIO
    TITLE "0:"
    INDEX 01 10:50:37
  TRACK 520 AUDIO
    TITLE "31:cjc023_3855"
    INDEX 01 10:50:63
  TRACK 521 AUDIO
    TITLE "0:"
    INDEX 01 10:53:41
  TRACK 522 AUDIO
    TITLE "28:cjc023_3856"
    INDEX 01 10:54:41
  TRACK 523 AUDIO
    TITLE "0:"
    INDEX 01 10:55:50
  TRACK 524 AUDIO
    TITLE "29:cjc023_3857"
    INDEX 01 10:56:22
  TRACK 525 AUDIO
    TITLE "0:"
    INDEX 01 11:01:00
  TRACK 526 AUDIO
    TITLE "30:cjc023_3858"
    INDEX 01 11:01:21
  TRACK 527 AUDIO
    TITLE "0:"
    INDEX 01 11:04:71
  TRACK 528 AUDIO
    TITLE "31:cjc023_3859"
    INDEX 01 11:05:17
  TRACK 529 AUDIO
    TITLE "0:"
    INDEX 01 11:08:68
  TRACK 530 AUDIO
    TITLE "28:cjc023_3860"
    INDEX 01 11:09:66
  TRACK 531 AUDIO
    TITLE "0:"
    INDEX 01 11:11:27
  TRACK 532 AUDIO
    TITLE "29:cjc023_3861"
    INDEX 01 11:11:73
  TRACK 533 AUDIO
    TITLE "0:"
    INDEX 01 11:14:12
  TRACK 534 AUDIO
    TITLE "30:cjc023_3862"
    INDEX 01 11:14:38
  TRACK 535 AUDIO
    TITLE "0:"
    INDEX 01 11:17:01
  TRACK 536 AUDIO
    TITLE "31:cjc023_3863"
    INDEX 01 11:17:22
  TRACK 537 AUDIO
    TITLE "0:"
    INDEX 01 11:19:62
  TRACK 538 AUDIO
    TITLE "28:cjc023_3864"
    INDEX 01 11:20:58
  TRACK 539 AUDIO
    TITLE "0:"
    INDEX 01 11:22:04
  TRACK 540 AUDIO
    TITLE "29:cjc023_3865"
    INDEX 01 11:22:51
  TRACK 541 AUDIO
    TITLE "0:"
    INDEX 01 11:24:28
  TRACK 542 AUDIO
    TITLE "30:cjc023_3866"
    INDEX 01 11:24:50
  TRACK 543 AUDIO
    TITLE "0:"
    INDEX 01 11:26:51
  TRACK 544 AUDIO
    TITLE "31:cjc023_3867"
    INDEX 01 11:26:72
  TRACK 545 AUDIO
    TITLE "0:"
    INDEX 01 11:28:71
  TRACK 546 AUDIO
    TITLE "28:cjc023_3868"
    INDEX 01 11:29:70
  TRACK 547 AUDIO
    TITLE "0:"
    INDEX 01 11:31:20
  TRACK 548 AUDIO
    TITLE "29:cjc023_3869"
    INDEX 01 11:31:69
  TRACK 549 AUDIO
    TITLE "0:"
    INDEX 01 11:33:45
  TRACK 550 AUDIO
    TITLE "30:cjc023_3870"
    INDEX 01 11:33:66
  TRACK 551 AUDIO
    TITLE "0:"
    INDEX 01 11:35:26
  TRACK 552 AUDIO
    TITLE "31:cjc023_3871"
    INDEX 01 11:35:51
  TRACK 553 AUDIO
    TITLE "0:"
    INDEX 01 11:37:11
  TRACK 554 AUDIO
    TITLE "28:cjc023_3872"
    INDEX 01 11:38:13
  TRACK 555 AUDIO
    TITLE "0:"
    INDEX 01 11:39:26
  TRACK 556 AUDIO
    TITLE "29:cjc023_3873"
    INDEX 01 11:39:73
  TRACK 557 AUDIO
    TITLE "0:"
    INDEX 01 11:42:30
  TRACK 558 AUDIO
    TITLE "30:cjc023_3874"
    INDEX 01 11:42:50
  TRACK 559 AUDIO
    TITLE "0:"
    INDEX 01 11:45:05
  TRACK 560 AUDIO
    TITLE "31:cjc023_3875"
    INDEX 01 11:45:28
  TRACK 561 AUDIO
    TITLE "0:"
    INDEX 01 11:47:59
  TRACK 562 AUDIO
    TITLE "28:cjc023_3876"
    INDEX 01 11:48:56
  TRACK 563 AUDIO
    TITLE "0:"
    INDEX 01 11:50:04
  TRACK 564 AUDIO
    TITLE "29:cjc023_3877"
    INDEX 01 11:50:51
  TRACK 565 AUDIO
    TITLE "0:"
    INDEX 01 11:52:64
  TRACK 566 AUDIO
    TITLE "30:cjc023_3878"
    INDEX 01 11:53:12
  TRACK 567 AUDIO
    TITLE "0:"
    INDEX 01 11:55:58
  TRACK 568 AUDIO
    TITLE "31:cjc023_3879"
    INDEX 01 11:56:07
  TRACK 569 AUDIO
    TITLE "0:"
    INDEX 01 11:58:51
  TRACK 570 AUDIO
    TITLE "28:cjc023_3880"
    INDEX 01 11:59:48
  TRACK 571 AUDIO
    TITLE "0:"
    INDEX 01 12:00:44
  TRACK 572 AUDIO
    TITLE "29:cjc023_3881"
    INDEX 01 12:01:18
  TRACK 573 AUDIO
    TITLE "0:"
    INDEX 01 12:03:07
  TRACK 574 AUDIO
    TITLE "30:cjc023_3882"
    INDEX 01 12:03:32
  TRACK 575 AUDIO
    TITLE "0:"
    INDEX 01 12:05:17
  TRACK 576 AUDIO
    TITLE "31:cjc023_3883"
    INDEX 01 12:05:41
  TRACK 577 AUDIO
    TITLE "0:"
    INDEX 01 12:07:24
  TRACK 578 AUDIO
    TITLE "28:cjc023_3884"
    INDEX 01 12:08:22
  TRACK 579 AUDIO
    TITLE "0:"
    INDEX 01 12:09:41
  TRACK 580 AUDIO
    TITLE "29:cjc023_3885"
    INDEX 01 12:10:13
  TRACK 581 AUDIO
    TITLE "0:"
    INDEX 01 12:11:71
  TRACK 582 AUDIO
    TITLE "30:cjc023_3886"
    INDEX 01 12:12:19
  TRACK 583 AUDIO
    TITLE "0:"
    INDEX 01 12:14:12
  TRACK 584 AUDIO
    TITLE "31:cjc023_3887"
    INDEX 01 12:14:36
  TRACK 585 AUDIO
    TITLE "0:"
    INDEX 01 12:16:29
  TRACK 586 AUDIO
    TITLE "28:cjc023_3888"
    INDEX 01 12:17:22
  TRACK 587 AUDIO
    TITLE "0:"
    INDEX 01 12:18:43
  TRACK 588 AUDIO
    TITLE "29:cjc023_3889"
    INDEX 01 12:19:15
  TRACK 589 AUDIO
    TITLE "0:"
    INDEX 01 12:20:68
  TRACK 590 AUDIO
    TITLE "30:cjc023_3890"
    INDEX 01 12:21:18
  TRACK 591 AUDIO
    TITLE "0:"
    INDEX 01 12:23:02
  TRACK 592 AUDIO
    TITLE "31:cjc023_3891"
    INDEX 01 12:23:21
  TRACK 593 AUDIO
    TITLE "0:"
    INDEX 01 12:25:04
  TRACK 594 AUDIO
    TITLE "28:cjc023_3892"
    INDEX 01 12:25:73
  TRACK 595 AUDIO
    TITLE "0:"
    INDEX 01 12:27:11
  TRACK 596 AUDIO
    TITLE "29:cjc023_3893"
    INDEX 01 12:27:64
  TRACK 597 AUDIO
    TITLE "0:"
    INDEX 01 12:30:29
  TRACK 598 AUDIO
    TITLE "30:cjc023_3894"
    INDEX 01 12:30:51
  TRACK 599 AUDIO
    TITLE "0:"
    INDEX 01 12:32:67
  TRACK 600 AUDIO
    TITLE "31:cjc023_3895"
    INDEX 01 12:33:14
  TRACK 601 AUDIO
    TITLE "0:"
    INDEX 01 12:35:28
  TRACK 602 AUDIO
    TITLE "28:cjc023_3896"
    INDEX 01 12:36:26
  TRACK 603 AUDIO
    TITLE "0:"
    INDEX 01 12:37:37
  TRACK 604 AUDIO
    TITLE "29:cjc023_3897"
    INDEX 01 12:38:09
  TRACK 605 AUDIO
    TITLE "0:"
    INDEX 01 12:40:10
  TRACK 606 AUDIO
    TITLE "30:cjc023_3898"
    INDEX 01 12:40:33
  TRACK 607 AUDIO
    TITLE "0:"
    INDEX 01 12:42:50
  TRACK 608 AUDIO
    TITLE "31:cjc023_3899"
    INDEX 01 12:42:69
  TRACK 609 AUDIO
    TITLE "0:"
    INDEX 01 12:45:13
  TRACK 610 AUDIO
    TITLE "28:cjc023_3900"
    INDEX 01 12:46:08
  TRACK 611 AUDIO
    TITLE "0:"
    INDEX 01 12:47:27
  TRACK 612 AUDIO
    TITLE "29:cjc023_3901"
    INDEX 01 12:48:01
  TRACK 613 AUDIO
    TITLE "0:"
    INDEX 01 12:50:30
  TRACK 614 AUDIO
    TITLE "30:cjc023_3902"
    INDEX 01 12:50:49
  TRACK 615 AUDIO
    TITLE "0:"
    INDEX 01 12:52:40
  TRACK 616 AUDIO
    TITLE "31:cjc023_3903"
    INDEX 01 12:52:60
  TRACK 617 AUDIO
    TITLE "0:"
    INDEX 01 12:54:49
  TRACK 618 AUDIO
    TITLE "28:cjc023_3904"
    INDEX 01 12:55:45
  TRACK 619 AUDIO
    TITLE "0:"
    INDEX 01 12:56:62
  TRACK 620 AUDIO
    TITLE "29:cjc023_3905"
    INDEX 01 12:57:38
  TRACK 621 AUDIO
    TITLE "0:"
    INDEX 01 13:00:05
  TRACK 622 AUDIO
    TITLE "30:cjc023_3906"
    INDEX 01 13:00:28
  TRACK 623 AUDIO
    TITLE "0:"
    INDEX 01 13:02:49
  TRACK 624 AUDIO
    TITLE "31:cjc023_3907"
    INDEX 01 13:02:70
  TRACK 625 AUDIO
    TITLE "0:"
    INDEX 01 13:05:16
  TRACK 626 AUDIO
    TITLE "28:cjc023_3908"
    INDEX 01 13:06:15
  TRACK 627 AUDIO
    TITLE "0:"
    INDEX 01 13:07:34
  TRACK 628 AUDIO
    TITLE "29:cjc023_3909"
    INDEX 01 13:08:06
  TRACK 629 AUDIO
    TITLE "0:"
    INDEX 01 13:10:54
  TRACK 630 AUDIO
    TITLE "30:cjc023_3910"
    INDEX 01 13:11:01
  TRACK 631 AUDIO
    TITLE "0:"
    INDEX 01 13:13:72
  TRACK 632 AUDIO
    TITLE "31:cjc023_3911"
    INDEX 01 13:14:18
  TRACK 633 AUDIO
    TITLE "0:"
    INDEX 01 13:17:15
  TRACK 634 AUDIO
    TITLE "28:cjc023_3912"
    INDEX 01 13:18:10
  TRACK 635 AUDIO
    TITLE "0:"
    INDEX 01 13:19:02
  TRACK 636 AUDIO
    TITLE "29:cjc023_3913"
    INDEX 01 13:19:51
  TRACK 637 AUDIO
    TITLE "0:"
    INDEX 01 13:21:38
  TRACK 638 AUDIO
    TITLE "30:cjc023_3914"
    INDEX 01 13:21:60
  TRACK 639 AUDIO
    TITLE "0:"
    INDEX 01 13:23:47
  TRACK 640 AUDIO
    TITLE "31:cjc023_3915"
    INDEX 01 13:23:64
  TRACK 641 AUDIO
    TITLE "0:"
    INDEX 01 13:25:52
  TRACK 642 AUDIO
    TITLE "28:cjc023_3916"
    INDEX 01 13:26:45
  TRACK 643 AUDIO
    TITLE "0:"
    INDEX 01 13:27:58
  TRACK 644 AUDIO
    TITLE "29:cjc023_3917"
    INDEX 01 13:28:30
  TRACK 645 AUDIO
    TITLE "0:"
    INDEX 01 13:30:74
  TRACK 646 AUDIO
    TITLE "30:cjc023_3918"
    INDEX 01 13:31:21
  TRACK 647 AUDIO
    TITLE "0:"
    INDEX 01 13:33:39
  TRACK 648 AUDIO
    TITLE "31:cjc023_3919"
    INDEX 01 13:33:61
  TRACK 649 AUDIO
    TITLE "0:"
    INDEX 01 13:36:04
  TRACK 650 AUDIO
    TITLE "28:cjc023_3920"
    INDEX 01 13:37:02
  TRACK 651 AUDIO
    TITLE "0:"
    INDEX 01 13:38:11
  TRACK 652 AUDIO
    TITLE "29:cjc023_3921"
    INDEX 01 13:38:58
  TRACK 653 AUDIO
    TITLE "0:"
    INDEX 01 13:40:73
  TRACK 654 AUDIO
    TITLE "30:cjc023_3922"
    INDEX 01 13:41:19
  TRACK 655 AUDIO
    TITLE "0:"
    INDEX 01 13:43:59
  TRACK 656 AUDIO
    TITLE "31:cjc023_3923"
    INDEX 01 13:44:06
  TRACK 657 AUDIO
    TITLE "0:"
    INDEX 01 13:46:46
  TRACK 658 AUDIO
    TITLE "28:cjc023_3924"
    INDEX 01 13:47:41
  TRACK 659 AUDIO
    TITLE "0:"
    INDEX 01 13:48:62
  TRACK 660 AUDIO
    TITLE "29:cjc023_3925"
    INDEX 01 13:49:40
  TRACK 661 AUDIO
    TITLE "0:"
    INDEX 01 13:51:49
  TRACK 662 AUDIO
    TITLE "30:cjc023_3926"
    INDEX 01 13:52:00
  TRACK 663 AUDIO
    TITLE "0:"
    INDEX 01 13:54:49
  TRACK 664 AUDIO
    TITLE "31:cjc023_3927"
    INDEX 01 13:54:73
  TRACK 665 AUDIO
    TITLE "0:"
    INDEX 01 13:57:50
  TRACK 666 AUDIO
    TITLE "28:cjc023_3928"
    INDEX 01 13:58:49
  TRACK 667 AUDIO
    TITLE "0:"
    INDEX 01 13:59:74
  TRACK 668 AUDIO
    TITLE "29:cjc023_3929"
    INDEX 01 14:00:44
  TRACK 669 AUDIO
    TITLE "0:"
    INDEX 01 14:02:49
  TRACK 670 AUDIO
    TITLE "30:cjc023_3930"
    INDEX 01 14:02:72
  TRACK 671 AUDIO
    TITLE "0:"
    INDEX 01 14:04:71
  TRACK 672 AUDIO
    TITLE "31:cjc023_3931"
    INDEX 01 14:05:22
  TRACK 673 AUDIO
    TITLE "0:"
    INDEX 01 14:07:23
  TRACK 674 AUDIO
    TITLE "28:cjc023_3932"
    INDEX 01 14:08:20
  TRACK 675 AUDIO
    TITLE "0:"
    INDEX 01 14:09:43
  TRACK 676 AUDIO
    TITLE "29:cjc023_3933"
    INDEX 01 14:10:13
  TRACK 677 AUDIO
    TITLE "0:"
    INDEX 01 14:12:67
  TRACK 678 AUDIO
    TITLE "30:cjc023_3934"
    INDEX 01 14:13:19
  TRACK 679 AUDIO
    TITLE "0:"
    INDEX 01 14:16:04
  TRACK 680 AUDIO
    TITLE "31:cjc023_3935"
    INDEX 01 14:16:29
  TRACK 681 AUDIO
    TITLE "0:"
    INDEX 01 14:19:14
  TRACK 682 AUDIO
    TITLE "28:cjc023_3936"
    INDEX 01 14:20:10
  TRACK 683 AUDIO
    TITLE "0:"
    INDEX 01 14:21:40
  TRACK 684 AUDIO
    TITLE "29:cjc023_3937"
    INDEX 01 14:22:12
  TRACK 685 AUDIO
    TITLE "0:"
    INDEX 01 14:24:21
  TRACK 686 AUDIO
    TITLE "30:cjc023_3938"
    INDEX 01 14:24:41
  TRACK 687 AUDIO
    TITLE "0:"
    INDEX 01 14:27:06
  TRACK 688 AUDIO
    TITLE "31:cjc023_3939"
    INDEX 01 14:27:25
  TRACK 689 AUDIO
    TITLE "0:"
    INDEX 01 14:29:65
  TRACK 690 AUDIO
    TITLE "28:cjc023_3940"
    INDEX 01 14:30:61
  TRACK 691 AUDIO
    TITLE "0:"
    INDEX 01 14:31:64
  TRACK 692 AUDIO
    TITLE "29:cjc023_3941"
    INDEX 01 14:32:38
  TRACK 693 AUDIO
    TITLE "0:"
    INDEX 01 14:34:43
  TRACK 694 AUDIO
    TITLE "30:cjc023_3942"
    INDEX 01 14:34:66
  TRACK 695 AUDIO
    TITLE "0:"
    INDEX 01 14:37:04
  TRACK 696 AUDIO
    TITLE "31:cjc023_3943"
    INDEX 01 14:37:26
  TRACK 697 AUDIO
    TITLE "0:"
    INDEX 01 14:39:40
  TRACK 698 AUDIO
    TITLE "28:cjc023_3944"
    INDEX 01 14:40:36
  TRACK 699 AUDIO
    TITLE "0:"
    INDEX 01 14:41:39
  TRACK 700 AUDIO
    TITLE "29:cjc023_3945"
    INDEX 01 14:42:13
  TRACK 701 AUDIO
    TITLE "0:"
    INDEX 01 14:44:24
  TRACK 702 AUDIO
    TITLE "30:cjc023_3946"
    INDEX 01 14:44:45
  TRACK 703 AUDIO
    TITLE "0:"
    INDEX 01 14:46:56
  TRACK 704 AUDIO
    TITLE "31:cjc023_3947"
    INDEX 01 14:47:04
  TRACK 705 AUDIO
    TITLE "0:"
    INDEX 01 14:49:15
  TRACK 706 AUDIO
    TITLE "28:cjc023_3948"
    INDEX 01 14:50:11
  TRACK 707 AUDIO
    TITLE "0:"
    INDEX 01 14:51:18
  TRACK 708 AUDIO
    TITLE "29:cjc023_3949"
    INDEX 01 14:51:65
  TRACK 709 AUDIO
    TITLE "0:"
    INDEX 01 14:54:73
  TRACK 710 AUDIO
    TITLE "30:cjc023_3950"
    INDEX 01 14:55:22
  TRACK 711 AUDIO
    TITLE "0:"
    INDEX 01 14:57:73
  TRACK 712 AUDIO
    TITLE "31:cjc023_3951"
    INDEX 01 14:58:22
  TRACK 713 AUDIO
    TITLE "0:"
    INDEX 01 15:00:74
  TRACK 714 AUDIO
    TITLE "28:cjc023_3952"
    INDEX 01 15:01:71
  TRACK 715 AUDIO
    TITLE "0:"
    INDEX 01 15:02:71
  TRACK 716 AUDIO
    TITLE "29:cjc023_3953"
    INDEX 01 15:03:47
  TRACK 717 AUDIO
    TITLE "0:"
    INDEX 01 15:06:06
  TRACK 718 AUDIO
    TITLE "30:cjc023_3954"
    INDEX 01 15:06:25
  TRACK 719 AUDIO
    TITLE "0:"
    INDEX 01 15:08:42
  TRACK 720 AUDIO
    TITLE "31:cjc023_3955"
    INDEX 01 15:08:63
  TRACK 721 AUDIO
    TITLE "0:"
    INDEX 01 15:11:05
  TRACK 722 AUDIO
    TITLE "28:cjc023_3956"
    INDEX 01 15:12:02
  TRACK 723 AUDIO
    TITLE "0:"
    INDEX 01 15:13:06
  TRACK 724 AUDIO
    TITLE "29:cjc023_3957"
    INDEX 01 15:13:55
  TRACK 725 AUDIO
    TITLE "0:"
    INDEX 01 15:17:15
  TRACK 726 AUDIO
    TITLE "30:cjc023_3958"
    INDEX 01 15:17:37
  TRACK 727 AUDIO
    TITLE "0:"
    INDEX 01 15:20:04
  TRACK 728 AUDIO
    TITLE "31:cjc023_3959"
    INDEX 01 15:20:25
  TRACK 729 AUDIO
    TITLE "0:"
    INDEX 01 15:22:67
  TRACK 730 AUDIO
    TITLE "28:cjc023_3960"
    INDEX 01 15:23:69
  TRACK 731 AUDIO
    TITLE "0:"
    INDEX 01 15:25:11
  TRACK 732 AUDIO
    TITLE "29:cjc023_3961"
    INDEX 01 15:25:56
  TRACK 733 AUDIO
    TITLE "0:"
    INDEX 01 15:28:05
  TRACK 734 AUDIO
    TITLE "30:cjc023_3962"
    INDEX 01 15:28:27
  TRACK 735 AUDIO
    TITLE "0:"
    INDEX 01 15:30:34
  TRACK 736 AUDIO
    TITLE "31:cjc023_3963"
    INDEX 01 15:30:53
  TRACK 737 AUDIO
    TITLE "0:"
    INDEX 01 15:32:60
  TRACK 738 AUDIO
    TITLE "28:cjc023_3964"
    INDEX 01 15:33:57
  TRACK 739 AUDIO
    TITLE "0:"
    INDEX 01 15:35:00
  TRACK 740 AUDIO
    TITLE "29:cjc023_3965"
    INDEX 01 15:35:45
  TRACK 741 AUDIO
    TITLE "0:"
    INDEX 01 15:38:12
  TRACK 742 AUDIO
    TITLE "30:cjc023_3966"
    INDEX 01 15:38:33
  TRACK 743 AUDIO
    TITLE "0:"
    INDEX 01 15:41:12
  TRACK 744 AUDIO
    TITLE "31:cjc023_3967"
    INDEX 01 15:41:33
  TRACK 745 AUDIO
    TITLE "0:"
    INDEX 01 15:44:12
  TRACK 746 AUDIO
    TITLE "28:cjc023_3968"
    INDEX 01 15:45:08
  TRACK 747 AUDIO
    TITLE "0:"
    INDEX 01 15:46:25
  TRACK 748 AUDIO
    TITLE "29:cjc023_3969"
    INDEX 01 15:46:70
  TRACK 749 AUDIO
    TITLE "0:"
    INDEX 01 15:49:15
  TRACK 750 AUDIO
    TITLE "30:cjc023_3970"
    INDEX 01 15:49:35
  TRACK 751 AUDIO
    TITLE "0:"
    INDEX 01 15:51:65
  TRACK 752 AUDIO
    TITLE "31:cjc023_3971"
    INDEX 01 15:52:10
  TRACK 753 AUDIO
    TITLE "0:"
    INDEX 01 15:54:38
  TRACK 754 AUDIO
    TITLE "28:cjc023_3972"
    INDEX 01 15:55:36
  TRACK 755 AUDIO
    TITLE "0:"
    INDEX 01 15:56:47
  TRACK 756 AUDIO
    TITLE "29:cjc023_3973"
    INDEX 01 15:57:17
  TRACK 757 AUDIO
    TITLE "0:"
    INDEX 01 16:00:11
  TRACK 758 AUDIO
    TITLE "30:cjc023_3974"
    INDEX 01 16:00:35
  TRACK 759 AUDIO
    TITLE "0:"
    INDEX 01 16:03:35
  TRACK 760 AUDIO
    TITLE "31:cjc023_3975"
    INDEX 01 16:03:59
  TRACK 761 AUDIO
    TITLE "0:"
    INDEX 01 16:06:61
  TRACK 762 AUDIO
    TITLE "28:cjc023_3976"
    INDEX 01 16:07:54
  TRACK 763 AUDIO
    TITLE "0:"
    INDEX 01 16:09:02
  TRACK 764 AUDIO
    TITLE "29:cjc023_3977"
    INDEX 01 16:09:47
  TRACK 765 AUDIO
    TITLE "0:"
    INDEX 01 16:13:08
  TRACK 766 AUDIO
    TITLE "30:cjc023_3978"
    INDEX 01 16:13:30
  TRACK 767 AUDIO
    TITLE "0:"
    INDEX 01 16:16:06
  TRACK 768 AUDIO
    TITLE "31:cjc023_3979"
    INDEX 01 16:16:26
  TRACK 769 AUDIO
    TITLE "0:"
    INDEX 01 16:19:01
  TRACK 770 AUDIO
    TITLE "28:cjc023_3980"
    INDEX 01 16:19:71
  TRACK 771 AUDIO
    TITLE "0:"
    INDEX 01 16:21:02
  TRACK 772 AUDIO
    TITLE "29:cjc023_3981"
    INDEX 01 16:21:49
  TRACK 773 AUDIO
    TITLE "0:"
    INDEX 01 16:24:25
  TRACK 774 AUDIO
    TITLE "30:cjc023_3982"
    INDEX 01 16:24:47
  TRACK 775 AUDIO
    TITLE "0:"
    INDEX 01 16:27:08
  TRACK 776 AUDIO
    TITLE "31:cjc023_3983"
    INDEX 01 16:27:28
  TRACK 777 AUDIO
    TITLE "0:"
    INDEX 01 16:29:62
  TRACK 778 AUDIO
    TITLE "28:cjc023_3984"
    INDEX 01 16:30:57
  TRACK 779 AUDIO
    TITLE "0:"
    INDEX 01 16:32:07
  TRACK 780 AUDIO
    TITLE "29:cjc023_3985"
    INDEX 01 16:32:54
  TRACK 781 AUDIO
    TITLE "0:"
    INDEX 01 16:35:12
  TRACK 782 AUDIO
    TITLE "30:cjc023_3986"
    INDEX 01 16:35:33
  TRACK 783 AUDIO
    TITLE "0:"
    INDEX 01 16:37:38
  TRACK 784 AUDIO
    TITLE "31:cjc023_3987"
    INDEX 01 16:37:57
  TRACK 785 AUDIO
    TITLE "0:"
    INDEX 01 16:39:62
  TRACK 786 AUDIO
    TITLE "28:cjc023_3988"
    INDEX 01 16:40:58
  TRACK 787 AUDIO
    TITLE "0:"
    INDEX 01 16:41:69
  TRACK 788 AUDIO
    TITLE "29:cjc023_3989"
    INDEX 01 16:42:41
  TRACK 789 AUDIO
    TITLE "0:"
    INDEX 01 16:44:73
  TRACK 790 AUDIO
    TITLE "30:cjc023_3990"
    INDEX 01 16:45:20
  TRACK 791 AUDIO
    TITLE "0:"
    INDEX 01 16:47:44
  TRACK 792 AUDIO
    TITLE "31:cjc023_3991"
    INDEX 01 16:47:68
  TRACK 793 AUDIO
    TITLE "0:"
    INDEX 01 16:50:19
  TRACK 794 AUDIO
    TITLE "28:cjc023_3992"
    INDEX 01 16:51:15
  TRACK 795 AUDIO
    TITLE "0:"
    INDEX 01 16:52:34
  TRACK 796 AUDIO
    TITLE "29:cjc023_3993"
    INDEX 01 16:53:08
  TRACK 797 AUDIO
    TITLE "0:"
    INDEX 01 16:54:66
  TRACK 798 AUDIO
    TITLE "30:cjc023_3994"
    INDEX 01 16:55:12
  TRACK 799 AUDIO
    TITLE "0:"
    INDEX 01 16:57:21
  TRACK 800 AUDIO
    TITLE "31:cjc023_3995"
    INDEX 01 16:57:41
  TRACK 801 AUDIO
    TITLE "0:"
    INDEX 01 16:59:49
